<mxfile host="app.diagrams.net" modified="2020-08-23T11:01:47.358Z" agent="5.0 (X11)" etag="9cRiefYOZFw6khzqupSW" version="13.6.4" type="github">
  <diagram id="6a731a19-8d31-9384-78a2-239565b7b9f0" name="Page-1">
    <mxGraphModel dx="3869" dy="1534" grid="1" gridSize="10" guides="1" tooltips="1" connect="1" arrows="1" fold="1" page="1" pageScale="1" pageWidth="1169" pageHeight="827" background="#ffffff" math="0" shadow="0">
      <root>
        <mxCell id="0" />
        <mxCell id="1" parent="0" />
        <mxCell id="1745" value="" style="edgeStyle=none;rounded=0;jumpStyle=none;html=1;shadow=0;labelBackgroundColor=none;startArrow=none;startFill=0;endArrow=classic;endFill=1;jettySize=auto;orthogonalLoop=1;strokeColor=#2F5B7C;strokeWidth=3;fontFamily=Helvetica;fontSize=16;fontColor=#23445D;spacing=5;" parent="1" source="1749" target="1764" edge="1">
          <mxGeometry relative="1" as="geometry" />
        </mxCell>
        <mxCell id="1746" value="" style="edgeStyle=none;rounded=0;jumpStyle=none;html=1;shadow=0;labelBackgroundColor=none;startArrow=none;startFill=0;endArrow=classic;endFill=1;jettySize=auto;orthogonalLoop=1;strokeColor=#2F5B7C;strokeWidth=3;fontFamily=Helvetica;fontSize=16;fontColor=#23445D;spacing=5;" parent="1" source="1749" target="1771" edge="1">
          <mxGeometry relative="1" as="geometry" />
        </mxCell>
        <mxCell id="1748" value="" style="edgeStyle=none;rounded=0;jumpStyle=none;html=1;shadow=0;labelBackgroundColor=none;startArrow=none;startFill=0;endArrow=classic;endFill=1;jettySize=auto;orthogonalLoop=1;strokeColor=#2F5B7C;strokeWidth=3;fontFamily=Helvetica;fontSize=16;fontColor=#23445D;spacing=5;" parent="1" source="1749" target="1753" edge="1">
          <mxGeometry relative="1" as="geometry" />
        </mxCell>
        <mxCell id="1749" value="KISS" style="rounded=1;whiteSpace=wrap;html=1;shadow=0;labelBackgroundColor=none;strokeColor=none;strokeWidth=3;fillColor=#2F5B7C;fontFamily=Helvetica;fontSize=16;fontColor=#FFFFFF;align=center;fontStyle=1;spacing=5;arcSize=7;perimeterSpacing=2;" parent="1" vertex="1">
          <mxGeometry x="495" y="380.5" width="150" height="70" as="geometry" />
        </mxCell>
        <mxCell id="1750" value="" style="edgeStyle=none;rounded=1;jumpStyle=none;html=1;shadow=0;labelBackgroundColor=none;startArrow=none;startFill=0;jettySize=auto;orthogonalLoop=1;strokeColor=#E85642;strokeWidth=3;fontFamily=Helvetica;fontSize=14;fontColor=#FFFFFF;spacing=5;fontStyle=1;fillColor=#b0e3e6;" parent="1" source="1753" target="1756" edge="1">
          <mxGeometry relative="1" as="geometry" />
        </mxCell>
        <mxCell id="1751" value="" style="edgeStyle=none;rounded=1;jumpStyle=none;html=1;shadow=0;labelBackgroundColor=none;startArrow=none;startFill=0;jettySize=auto;orthogonalLoop=1;strokeColor=#E85642;strokeWidth=3;fontFamily=Helvetica;fontSize=14;fontColor=#FFFFFF;spacing=5;fontStyle=1;fillColor=#b0e3e6;" parent="1" source="1753" target="1755" edge="1">
          <mxGeometry relative="1" as="geometry" />
        </mxCell>
        <mxCell id="1752" value="" style="edgeStyle=none;rounded=1;jumpStyle=none;html=1;shadow=0;labelBackgroundColor=none;startArrow=none;startFill=0;jettySize=auto;orthogonalLoop=1;strokeWidth=3;fontFamily=Helvetica;fontSize=14;fontColor=#FFFFFF;spacing=5;fontStyle=1;fillColor=#b0e3e6;strokeColor=#E85642;" parent="1" source="1753" target="1754" edge="1">
          <mxGeometry relative="1" as="geometry" />
        </mxCell>
        <mxCell id="VMT3smuGjUHS_Jqr3HCp-1784" style="rounded=1;orthogonalLoop=1;jettySize=auto;html=1;exitX=0.5;exitY=1;exitDx=0;exitDy=0;entryX=0.5;entryY=0;entryDx=0;entryDy=0;strokeColor=#E85642;strokeWidth=3;" edge="1" parent="1" source="1753" target="VMT3smuGjUHS_Jqr3HCp-1779">
          <mxGeometry relative="1" as="geometry" />
        </mxCell>
        <mxCell id="VMT3smuGjUHS_Jqr3HCp-1785" style="rounded=1;orthogonalLoop=1;jettySize=auto;html=1;exitX=0;exitY=0;exitDx=0;exitDy=0;entryX=1;entryY=1;entryDx=0;entryDy=0;strokeColor=#E85642;strokeWidth=3;" edge="1" parent="1" source="1753" target="VMT3smuGjUHS_Jqr3HCp-1783">
          <mxGeometry relative="1" as="geometry" />
        </mxCell>
        <mxCell id="1753" value="&lt;strong&gt;В&amp;nbsp;программировании&lt;/strong&gt;" style="rounded=1;whiteSpace=wrap;html=1;shadow=0;labelBackgroundColor=none;strokeColor=none;strokeWidth=3;fillColor=#e85642;fontFamily=Helvetica;fontSize=14;fontColor=#FFFFFF;align=center;spacing=5;fontStyle=1;arcSize=7;perimeterSpacing=2;" parent="1" vertex="1">
          <mxGeometry x="215" y="505" width="155" height="65.5" as="geometry" />
        </mxCell>
        <mxCell id="1754" value="&lt;div align=&quot;justify&quot;&gt;Не&amp;nbsp;стоит подключать огромную библиотеку, если вам от&amp;nbsp;неё нужна лишь пара функций;&lt;/div&gt;" style="rounded=1;whiteSpace=wrap;html=1;shadow=0;labelBackgroundColor=none;strokeColor=none;strokeWidth=3;fontFamily=Helvetica;fontSize=14;fontColor=#FFFFFF;align=center;spacing=5;fontStyle=0;arcSize=7;perimeterSpacing=2;fillColor=#F08E81;" parent="1" vertex="1">
          <mxGeometry x="-150" y="695" width="250" height="90" as="geometry" />
        </mxCell>
        <mxCell id="1755" value="&lt;div align=&quot;justify&quot;&gt;Бессмысленно закладывать в&amp;nbsp;проект избыточные функции «про&amp;nbsp;запас», которые может быть &lt;span class=&quot;nowrap&quot;&gt;когда-нибудь&lt;/span&gt;&lt;span class=&quot;nowrap&quot;&gt;кому-либо&lt;/span&gt; понадобятся (тут скорее правильнее &lt;a href=&quot;https://web-creator.ru/articles/yagni&quot;&gt;подход согласно принципу YAGNI&lt;/a&gt;);&lt;/div&gt; " style="rounded=1;whiteSpace=wrap;html=1;shadow=0;labelBackgroundColor=none;strokeColor=none;strokeWidth=3;fillColor=#f08e81;fontFamily=Helvetica;fontSize=14;fontColor=#FFFFFF;align=center;spacing=5;fontStyle=0;arcSize=7;perimeterSpacing=2;" parent="1" vertex="1">
          <mxGeometry x="-270" y="477.75" width="340" height="120" as="geometry" />
        </mxCell>
        <mxCell id="1756" value="&lt;div align=&quot;justify&quot;&gt;Не&amp;nbsp;имеет смысла беспредельно увеличивать уровень абстракции, надо&amp;nbsp;уметь вовремя остановиться;&lt;/div&gt;" style="rounded=1;whiteSpace=wrap;html=1;shadow=0;labelBackgroundColor=none;strokeColor=none;strokeWidth=3;fillColor=#f08e81;fontFamily=Helvetica;fontSize=14;fontColor=#FFFFFF;align=center;spacing=5;fontStyle=0;arcSize=7;perimeterSpacing=2;" parent="1" vertex="1">
          <mxGeometry y="120.5" width="300" height="80" as="geometry" />
        </mxCell>
        <mxCell id="1764" value="&lt;h1 style=&quot;font-size: 15px&quot;&gt;&lt;font style=&quot;font-size: 15px&quot;&gt;Делайте вещи проще&lt;/font&gt;&lt;/h1&gt;" style="rounded=1;whiteSpace=wrap;html=1;shadow=0;labelBackgroundColor=none;strokeColor=none;strokeWidth=3;fillColor=#F08705;fontFamily=Helvetica;fontSize=14;fontColor=#FFFFFF;align=center;spacing=5;fontStyle=1;arcSize=7;perimeterSpacing=2;" parent="1" vertex="1">
          <mxGeometry x="495" y="200.5" width="150" height="60" as="geometry" />
        </mxCell>
        <mxCell id="1771" value="&lt;strong&gt;В&amp;nbsp;проектировании &lt;/strong&gt;" style="rounded=1;whiteSpace=wrap;html=1;shadow=0;labelBackgroundColor=none;strokeColor=none;strokeWidth=3;fillColor=#12aab5;fontFamily=Helvetica;fontSize=14;fontColor=#FFFFFF;align=center;spacing=5;fontStyle=1;arcSize=7;perimeterSpacing=2;" parent="1" vertex="1">
          <mxGeometry x="760" y="510.4999999999999" width="150" height="60" as="geometry" />
        </mxCell>
        <mxCell id="1774" value="&lt;div align=&quot;justify&quot;&gt;Бессмысленно делать реализацию сложной &lt;span class=&quot;nowrap&quot;&gt;бизнес-логики,&lt;/span&gt; которая учитывает абсолютно все возможные варианты поведения системы, пользователя и&amp;nbsp;окружающей среды, — &lt;span class=&quot;nowrap&quot;&gt;во-первых,&lt;/span&gt; это&amp;nbsp;просто невозможно, а&amp;nbsp;&lt;span class=&quot;nowrap&quot;&gt;во-вторых,&lt;/span&gt; такая фанатичность заставляет собирать «звездолёт», что&amp;nbsp;чаще всего иррационально с&amp;nbsp;коммерческой точки зрения.&lt;/div&gt;" style="rounded=1;whiteSpace=wrap;html=1;shadow=0;labelBackgroundColor=none;strokeColor=none;strokeWidth=3;fillColor=#61c6ce;fontFamily=Helvetica;fontSize=14;fontColor=#FFFFFF;align=center;spacing=5;fontStyle=0;arcSize=7;perimeterSpacing=2;" parent="1" vertex="1">
          <mxGeometry x="970" y="670" width="380" height="140" as="geometry" />
        </mxCell>
        <mxCell id="1775" value="" style="edgeStyle=none;rounded=1;jumpStyle=none;html=1;shadow=0;labelBackgroundColor=none;startArrow=none;startFill=0;jettySize=auto;orthogonalLoop=1;strokeColor=#12AAB5;strokeWidth=3;fontFamily=Helvetica;fontSize=14;fontColor=#FFFFFF;spacing=5;fontStyle=1;fillColor=#b0e3e6;" parent="1" source="1771" target="1774" edge="1">
          <mxGeometry relative="1" as="geometry" />
        </mxCell>
        <mxCell id="1776" value="&lt;div align=&quot;justify&quot;&gt;Не&amp;nbsp;стоит перегружать интерфейс теми опциями, которые не&amp;nbsp;будут нужны большинству пользователей, гораздо проще предусмотреть для&amp;nbsp;них отдельный«расширенный» интерфейс (или&amp;nbsp;вовсе отказаться от&amp;nbsp;данного функционала);&lt;/div&gt;" style="rounded=1;whiteSpace=wrap;html=1;shadow=0;labelBackgroundColor=none;strokeColor=none;strokeWidth=3;fillColor=#61c6ce;fontFamily=Helvetica;fontSize=14;fontColor=#FFFFFF;align=center;spacing=5;fontStyle=0;arcSize=7;perimeterSpacing=2;" parent="1" vertex="1">
          <mxGeometry x="1130" y="440.5" width="310" height="149.5" as="geometry" />
        </mxCell>
        <mxCell id="1777" value="" style="edgeStyle=none;rounded=1;jumpStyle=none;html=1;shadow=0;labelBackgroundColor=none;startArrow=none;startFill=0;jettySize=auto;orthogonalLoop=1;strokeColor=#12AAB5;strokeWidth=3;fontFamily=Helvetica;fontSize=14;fontColor=#FFFFFF;spacing=5;fontStyle=1;fillColor=#b0e3e6;" parent="1" source="1771" target="1776" edge="1">
          <mxGeometry relative="1" as="geometry" />
        </mxCell>
        <mxCell id="1778" value="&lt;div align=&quot;justify&quot;&gt;Не&amp;nbsp;имеет смысла реализовывать дополнительные функции, которые не&amp;nbsp;будут использоваться вовсе или&amp;nbsp;их использование крайне маловероятно, как правило, большинству пользователей достаточно базового функционала, а&amp;nbsp;усложнение только вредит удобству приложения;&lt;/div&gt;" style="rounded=1;whiteSpace=wrap;html=1;shadow=0;labelBackgroundColor=none;strokeColor=none;strokeWidth=3;fillColor=#61c6ce;fontFamily=Helvetica;fontSize=14;fontColor=#FFFFFF;align=center;spacing=5;fontStyle=0;arcSize=7;perimeterSpacing=2;" parent="1" vertex="1">
          <mxGeometry x="970" y="220" width="385" height="124.5" as="geometry" />
        </mxCell>
        <mxCell id="1779" value="" style="edgeStyle=none;rounded=1;jumpStyle=none;html=1;shadow=0;labelBackgroundColor=none;startArrow=none;startFill=0;jettySize=auto;orthogonalLoop=1;strokeColor=#12AAB5;strokeWidth=3;fontFamily=Helvetica;fontSize=14;fontColor=#FFFFFF;spacing=5;fontStyle=1;fillColor=#b0e3e6;" parent="1" source="1771" target="1778" edge="1">
          <mxGeometry relative="1" as="geometry" />
        </mxCell>
        <mxCell id="VMT3smuGjUHS_Jqr3HCp-1779" value="&lt;div align=&quot;justify&quot;&gt;Декомпозиция &lt;span class=&quot;nowrap&quot;&gt;чего-то&lt;/span&gt; сложного на&amp;nbsp;простые составляющие — это&amp;nbsp;архитектурно верный подход (тут KISS перекликается с&amp;nbsp;&lt;a href=&quot;https://web-creator.ru/articles/dry&quot;&gt;DRY&lt;/a&gt;);&lt;/div&gt;" style="whiteSpace=wrap;html=1;rounded=1;shadow=0;fontSize=14;fontColor=#FFFFFF;fontStyle=0;strokeColor=none;strokeWidth=3;spacing=5;arcSize=7;fillColor=#F08E81;" vertex="1" parent="1">
          <mxGeometry x="215" y="685" width="290" height="100" as="geometry" />
        </mxCell>
        <mxCell id="VMT3smuGjUHS_Jqr3HCp-1783" value="&lt;div align=&quot;justify&quot;&gt;Абсолютная математическая точность или&amp;nbsp;предельная детализация нужны не&amp;nbsp;всегда — большинство систем создаются не&amp;nbsp;для&amp;nbsp;запуска космических шаттлов, данные можно и&amp;nbsp;нужно обрабатывать с&amp;nbsp;той точностью, которая достаточна для&amp;nbsp;качественного решения задачи, а&amp;nbsp;детализацию выдавать в&amp;nbsp;нужном пользователю объёме, а&amp;nbsp;не&amp;nbsp;в&amp;nbsp;максимально возможном объёме.&lt;/div&gt;" style="whiteSpace=wrap;html=1;rounded=1;shadow=0;fontSize=14;fontColor=#FFFFFF;fontStyle=0;strokeColor=none;strokeWidth=3;spacing=5;arcSize=7;fillColor=#F08E81;align=center;perimeterSpacing=2;" vertex="1" parent="1">
          <mxGeometry x="-370" y="280" width="480" height="140" as="geometry" />
        </mxCell>
      </root>
    </mxGraphModel>
  </diagram>
</mxfile>
